<svg width="64" height="64" viewBox="0 0 64 64" fill="none" xmlns="http://www.w3.org/2000/svg">
  <defs>
    <linearGradient id="handGrad1" x1="32" y1="14" x2="32" y2="50" gradientUnits="userSpaceOnUse">
      <stop offset="0%" stop-color="#585858"/>
      <stop offset="100%" stop-color="#282828"/>
    </linearGradient>
  </defs>
  
  <!-- 手掌主体 -->
  <path d="M24 30 C24 30 22 38 22 42 C22 46 26 50 32 50 C38 50 42 46 42 42 C42 38 40 30 40 30 L40 24 C40 22 38 20 36 20 L36 20 C34 20 32 22 32 24 L32 30 C32 30 30 30 30 28 L30 22 C30 20 28 18 26 18 L26 18 C24 18 22 20 22 22 L22 28 L22 30 Z" 
        fill="url(#handGrad1)" stroke="#000" stroke-width="1.5"/>
  
  <!-- 手指 -->
  <path d="M26 22 L26 28" stroke="#404040" stroke-width="2"/>
  <path d="M30 24 L30 30" stroke="#404040" stroke-width="2"/>
  <path d="M34 24 L34 30" stroke="#404040" stroke-width="2"/>
  <path d="M38 26 L38 32" stroke="#404040" stroke-width="2"/>
  
  <!-- 掌心纹路 -->
  <path d="M26 36 Q30 38 34 36" stroke="#454545" stroke-width="1.5" fill="none"/>
  <path d="M26 40 Q30 42 34 40" stroke="#454545" stroke-width="1.5" fill="none"/>
  
  <!-- 高光 -->
  <ellipse cx="32" cy="34" rx="4" ry="3" fill="#787878" opacity="0.4"/>
</svg>
