<svg width="64" height="64" viewBox="0 0 64 64" fill="none" xmlns="http://www.w3.org/2000/svg">
  <defs>
    <linearGradient id="cpuGrad1" x1="32" y1="12" x2="32" y2="52" gradientUnits="userSpaceOnUse">
      <stop offset="0%" stop-color="#5c5c5c"/>
      <stop offset="100%" stop-color="#2c2c2c"/>
    </linearGradient>
    <linearGradient id="cpuGrad2" x1="32" y1="22" x2="32" y2="42" gradientUnits="userSpaceOnUse">
      <stop offset="0%" stop-color="#727272"/>
      <stop offset="100%" stop-color="#424242"/>
    </linearGradient>
  </defs>
  
  <!-- CPU 主体 -->
  <rect x="20" y="20" width="24" height="24" rx="2" 
        fill="url(#cpuGrad1)" stroke="#000" stroke-width="1.5"/>
  
  <!-- CPU 内芯 -->
  <rect x="24" y="24" width="16" height="16" rx="1" 
        fill="url(#cpuGrad2)" opacity="0.8"/>
  
  <!-- 电路纹理 -->
  <path d="M28 28 L28 32 L32 32" stroke="#808080" stroke-width="1.5"/>
  <path d="M36 28 L36 32 L32 32" stroke="#808080" stroke-width="1.5"/>
  <path d="M28 36 L28 32 L32 32" stroke="#808080" stroke-width="1.5"/>
  <path d="M36 36 L36 32 L32 32" stroke="#808080" stroke-width="1.5"/>
  
  <!-- 中心点 -->
  <circle cx="32" cy="32" r="2" fill="#909090"/>
  
  <!-- 外部引脚 -->
  <rect x="30" y="14" width="4" height="4" fill="#505050" stroke="#000" stroke-width="1"/>
  <rect x="30" y="46" width="4" height="4" fill="#505050" stroke="#000" stroke-width="1"/>
  <rect x="14" y="30" width="4" height="4" fill="#505050" stroke="#000" stroke-width="1"/>
  <rect x="46" y="30" width="4" height="4" fill="#505050" stroke="#000" stroke-width="1"/>
  
  <!-- 高光 -->
  <path d="M22 22 L42 22" stroke="#858585" stroke-width="1" opacity="0.4"/>
</svg>
