<svg width="64" height="64" viewBox="0 0 64 64" fill="none" xmlns="http://www.w3.org/2000/svg">
  <!-- 基础入门 - 火花图标 -->
  <defs>
    <linearGradient id="sparkGradient1" x1="32" y1="8" x2="32" y2="56" gradientUnits="userSpaceOnUse">
      <stop offset="0%" stop-color="#4a4a4a"/>
      <stop offset="50%" stop-color="#2a2a2a"/>
      <stop offset="100%" stop-color="#1a1a1a"/>
    </linearGradient>
    <linearGradient id="sparkGradient2" x1="32" y1="16" x2="32" y2="48" gradientUnits="userSpaceOnUse">
      <stop offset="0%" stop-color="#6a6a6a"/>
      <stop offset="100%" stop-color="#3a3a3a"/>
    </linearGradient>
  </defs>
  
  <!-- 中心火花主体 -->
  <path d="M32 8 C32 8 34 20 36 26 C38 32 42 34 42 34 C42 34 38 36 36 42 C34 48 32 56 32 56 C32 56 30 48 28 42 C26 36 22 34 22 34 C22 34 26 32 28 26 C30 20 32 8 32 8Z" 
        fill="url(#sparkGradient1)" stroke="#000" stroke-width="1.5"/>
  
  <!-- 内层高光 -->
  <path d="M32 16 C32 16 33 24 34 28 C35 32 37 34 37 34 C37 34 35 36 34 40 C33 44 32 48 32 48 C32 48 31 44 30 40 C29 36 27 34 27 34 C27 34 29 32 30 28 C31 24 32 16 32 16Z" 
        fill="url(#sparkGradient2)" opacity="0.6"/>
  
  <!-- 装饰光点 -->
  <circle cx="42" y="22" r="2" fill="#5a5a5a"/>
  <circle cx="22" y="42" r="2" fill="#5a5a5a"/>
  <circle cx="44" y="34" r="1.5" fill="#5a5a5a"/>
  <circle cx="20" y="34" r="1.5" fill="#5a5a5a"/>
</svg>
