<svg width="64" height="64" viewBox="0 0 64 64" fill="none" xmlns="http://www.w3.org/2000/svg">
  <defs>
    <linearGradient id="shieldGrad1" x1="32" y1="12" x2="32" y2="52" gradientUnits="userSpaceOnUse">
      <stop offset="0%" stop-color="#606060"/>
      <stop offset="100%" stop-color="#303030"/>
    </linearGradient>
    <linearGradient id="shieldGrad2" x1="32" y1="20" x2="32" y2="44" gradientUnits="userSpaceOnUse">
      <stop offset="0%" stop-color="#707070"/>
      <stop offset="100%" stop-color="#404040"/>
    </linearGradient>
  </defs>
  
  <!-- 盾牌外框 -->
  <path d="M32 12 L48 18 L48 32 C48 42 42 50 32 52 C22 50 16 42 16 32 L16 18 L32 12Z" 
        fill="url(#shieldGrad1)" stroke="#000" stroke-width="1.5"/>
  
  <!-- 盾牌内层 -->
  <path d="M32 18 L44 22 L44 32 C44 40 40 46 32 48 C24 46 20 40 20 32 L20 22 L32 18Z" 
        fill="url(#shieldGrad2)" opacity="0.7"/>
  
  <!-- 安全标识 - 对勾 -->
  <path d="M26 34 L30 38 L38 30" stroke="#808080" stroke-width="2.5" stroke-linecap="round" stroke-linejoin="round"/>
  
  <!-- 装饰边框 -->
  <path d="M18 20 L46 20" stroke="#505050" stroke-width="1" opacity="0.5"/>
  
  <!-- 高光 -->
  <path d="M24 24 L40 24" stroke="#858585" stroke-width="1" opacity="0.4"/>
</svg>
