<svg width="64" height="64" viewBox="0 0 64 64" fill="none" xmlns="http://www.w3.org/2000/svg">
  <defs>
    <linearGradient id="trendGrad1" x1="32" y1="16" x2="32" y2="48" gradientUnits="userSpaceOnUse">
      <stop offset="0%" stop-color="#555555"/>
      <stop offset="100%" stop-color="#252525"/>
    </linearGradient>
  </defs>
  
  <!-- 坐标轴 -->
  <path d="M12 52 L12 16 L14 16 L14 50 L50 50 L50 52 L12 52Z" fill="#3a3a3a"/>
  
  <!-- 上升箭头 -->
  <path d="M18 44 L18 28 L28 28 L28 18 L32 14 L36 18 L36 28 L46 28 L46 30 L34 30 L34 42 L32 44 L30 42 L30 30 L20 30 L20 44 L18 44Z" 
        fill="url(#trendGrad1)" stroke="#000" stroke-width="1.5"/>
  
  <!-- 装饰点 -->
  <circle cx="22" cy="38" r="2" fill="#606060"/>
  <circle cx="26" cy="34" r="2" fill="#606060"/>
  <circle cx="30" cy="28" r="2" fill="#606060"/>
  <circle cx="38" cy="24" r="2" fill="#606060"/>
  <circle cx="42" cy="22" r="2" fill="#606060"/>
  
  <!-- 高光 -->
  <path d="M20 26 L26 26" stroke="#808080" stroke-width="1" opacity="0.4"/>
</svg>
